{"title":"Wentworth - S04E09 - Afterlife","uid":15221167,"size":1202625030,"categoryP":"video","categoryS":"tv_shows","magnet":"?xt=urn:btih:35166af7726e3c9358b2696cf7293f267825035e&amp;dn=Wentworth+-+S04E09+-+Afterlife&amp;tr=udp%3A%2F%2Ftracker.leechers-paradise.org%3A6969&amp;tr=udp%3A%2F%2Fzer0day.ch%3A1337&amp;tr=udp%3A%2F%2Fopen.demonii.com%3A1337&amp;tr=udp%3A%2F%2Ftracker.coppersurfer.tk%3A6969&amp;tr=udp%3A%2F%2Fexodus.desync.com%3A6969","seeders":8,"leechers":1,"uploader":"Bullrout","files":1,"time":1467738131,"description":"Wentworth - S04E09 - Afterlife\r\n\r\nBea struggles to recover in the wake of her attack. Ferguson returns from the burns unit and is placed in a medical hold under the supervision of Jake. Maxine is back after surgery and finds herself in the crossfire of huge tension between Boomer, Liz and Sonia.\r\n\r\nComplete name                            : Wentworth - S04E09 - Afterlife.mkv\r\nFormat                                   : Matroska\r\nFormat version                           : Version 4 / Version 2\r\nFile size                                : 1.12 GiB\r\nDuration                                 : 48mn 45s\r\nOverall bit rate mode                    : Variable\r\nOverall bit rate                         : 3 289 Kbps\r\nEncoded date                             : UTC 2016-07-05 14:23:55\r\nWriting application                      : mkvmerge v9.2.0 ('Photograph') 64bit\r\nWriting library                          : libebml v1.3.3 + libmatroska v1.4.4\r\n\r\nVideo\r\nID                                       : 2\r\nFormat                                   : AVC\r\nFormat/Info                              : Advanced Video Codec\r\nFormat profile                           :   \r\nFormat settings, CABAC                   : Yes\r\nFormat settings, ReFrames                : 3 frames\r\nCodec ID                                 : V_MPEG4/ISO/AVC\r\nDuration                                 : 48mn 45s\r\nBit rate mode                            : Variable\r\nBit rate                                 : 2 903 Kbps\r\nMaximum bit rate                         : 3 000 Kbps\r\nWidth                                    : 1 280 pixels\r\nHeight                                   : 720 pixels\r\nDisplay aspect ratio                     : 16:9\r\nFrame rate mode                          : Constant\r\nFrame rate                               : 25.000 fps\r\nStandard                                 : PAL\r\nColor space                              : YUV\r\nChroma subsampling                       : 4:2:0\r\nBit depth                                : 8 bits\r\nScan type                                : Progressive\r\nBits/(Pixel*Frame)                       : 0.126\r\nStream size                              : 1 012 MiB (88%)\r\nWriting library                          : x264 core 112\r\nDefault                                  : Yes\r\nForced                                   : No\r\nColor range                              : Limited\r\nColor primaries                          : BT.709\r\nTransfer characteristics                 : BT.709\r\nMatrix coefficients                      : BT.709\r\n\r\nAudio\r\nID                                       : 1\r\nFormat                                   : AC-3\r\nFormat/Info                              : Audio Coding 3\r\nMode extension                           : CM (complete main)\r\nFormat settings, Endianness              : Big\r\nCodec ID                                 : A_AC3\r\nDuration                                 : 48mn 45s\r\nBit rate mode                            : Constant\r\nBit rate                                 : 384 Kbps\r\nChannel(s)                               : 6 channels\r\nChannel positions                        : Front: L C R, Side: L R, LFE\r\nSampling rate                            : 48.0 KHz\r\nFrame rate                               : 31.250 fps (1536 spf)\r\nCompression mode                         : Lossy\r\nStream size                              : 134 MiB (12%)\r\nDefault                                  : Yes\r\nForced                                   : No","torrent":{"xt":"urn:btih:35166af7726e3c9358b2696cf7293f267825035e","amp;dn":"Wentworth+-+S04E09+-+Afterlife","amp;tr":["udp%3A%2F%2Ftracker.leechers-paradise.org%3A6969","udp%3A%2F%2Fzer0day.ch%3A1337","udp%3A%2F%2Fopen.demonii.com%3A1337","udp%3A%2F%2Ftracker.coppersurfer.tk%3A6969","udp%3A%2F%2Fexodus.desync.com%3A6969"],"infoHash":"35166af7726e3c9358b2696cf7293f267825035e","infoHashBuffer":{"type":"Buffer","data":[53,22,106,247,114,110,60,147,88,178,105,108,247,41,63,38,120,37,3,94]},"announce":[],"urlList":[]}}